<svg width="61" height="38" viewBox="0 0 61 38" fill="none" xmlns="http://www.w3.org/2000/svg">
<path fill-rule="evenodd" clip-rule="evenodd" d="M0.6 17V2.4H4.68V17H0.6ZM0.6 21V24.96C0.6 26.624 0.856 28.16 1.368 29.568C1.912 30.976 2.68 32.192 3.672 33.216C4.696 34.24 5.912 35.04 7.32 35.616C8.728 36.192 10.296 36.48 12.024 36.48C13.752 36.48 15.32 36.192 16.728 35.616C18.136 35.04 19.336 34.24 20.328 33.216C21.352 32.192 22.12 30.976 22.632 29.568C23.176 28.16 23.448 26.624 23.448 24.96V21H19.368V24.96C19.368 27.264 18.744 29.12 17.496 30.528C16.248 31.936 14.424 32.64 12.024 32.64C9.624 32.64 7.8 31.936 6.552 30.528C5.304 29.12 4.68 27.264 4.68 24.96V21H0.6ZM19.368 17H23.448V2.4H19.368V17ZM30.8869 21V36H34.9669V21H30.8869ZM34.9669 17H30.8869V0.719999L46.4056 17H40.6939L34.9669 10.992V17ZM44.5069 21L60.4069 37.68V21H56.3269V27.408L50.2185 21H44.5069ZM56.3269 17H60.4069V2.4H56.3269V17Z" fill="#868686"/>
</svg>